<?xml version="1.0" encoding="UTF-8" standalone="no"?>
<!-- Created with Inkscape (http://www.inkscape.org/) -->

<svg
   xmlns:dc="http://purl.org/dc/elements/1.1/"
   xmlns:cc="http://creativecommons.org/ns#"
   xmlns:rdf="http://www.w3.org/1999/02/22-rdf-syntax-ns#"
   xmlns:svg="http://www.w3.org/2000/svg"
   xmlns="http://www.w3.org/2000/svg"
   xmlns:sodipodi="http://sodipodi.sourceforge.net/DTD/sodipodi-0.dtd"
   xmlns:inkscape="http://www.inkscape.org/namespaces/inkscape"
   width="15"
   height="15"
   viewBox="0 0 3.9687499 3.9687501"
   version="1.1"
   id="svg8"
   inkscape:version="0.92.4 (5da689c313, 2019-01-14)"
   sodipodi:docname="bicycling2.svg">
  <defs
     id="defs2" />
  <sodipodi:namedview
     id="base"
     pagecolor="#ffffff"
     bordercolor="#666666"
     borderopacity="1.0"
     inkscape:pageopacity="0.0"
     inkscape:pageshadow="2"
     inkscape:zoom="15.839192"
     inkscape:cx="-2.5975442"
     inkscape:cy="12.807656"
     inkscape:document-units="mm"
     inkscape:current-layer="layer1"
     showgrid="false"
     units="px"
     inkscape:window-width="1920"
     inkscape:window-height="1017"
     inkscape:window-x="3832"
     inkscape:window-y="-8"
     inkscape:window-maximized="1" />
  <metadata
     id="metadata5">
    <rdf:RDF>
      <cc:Work
         rdf:about="">
        <dc:format>image/svg+xml</dc:format>
        <dc:type
           rdf:resource="http://purl.org/dc/dcmitype/StillImage" />
        <dc:title />
      </cc:Work>
    </rdf:RDF>
  </metadata>
  <g
     inkscape:label="Layer 1"
     inkscape:groupmode="layer"
     id="layer1"
     transform="translate(0,-293.03123)">
    <path
       id="path8-8"
       style="overflow:inherit;fill:#231f20;stroke-width:0.0769183"
       d="m 2.3351993,294.70793 c -0.039074,0 -0.081149,-0.0234 -0.11207,-0.0739 l -0.1748352,-0.28259 -0.3607469,0.36551 0.33421,0.17953 c 0.1376069,0.0675 0.1165312,0.19076 0.1165312,0.19076 v 0.77656 c 0,0.0881 -0.067996,0.15969 -0.1538366,0.15969 -0.085841,0 -0.1538365,-0.0717 -0.1538365,-0.15969 v -0.62165 l -0.5810409,-0.33006 c -0.06915,-0.0399 -0.1164543,-0.11568 -0.1164543,-0.20198 0,-0.0595 0.021229,-0.11415 0.057766,-0.15484 L 1.7599277,293.971 c 0.070611,-0.0823 0.1691434,-0.0692 0.1691434,-0.0692 0.1192234,0 0.1819887,0.10676 0.1819887,0.10676 l 0.2831362,0.47505 0.4362807,-8.4e-4 c 0.1538365,0 0.1538365,0.22521 0,0.22521 z m -0.011307,-0.67911 c 0.1486062,0 0.2693679,-0.12307 0.2693679,-0.27537 0,-0.15237 -0.1207617,-0.27621 -0.2693679,-0.27621 -0.1486061,0 -0.269291,0.12384 -0.269291,0.27621 0,0.15238 0.1206849,0.27537 0.269291,0.27537 z m 0.7143402,2.38985 c 0.321057,0 0.5825794,-0.26806 0.5825794,-0.59811 0,-0.33068 -0.2615224,-0.59874 -0.5825794,-0.59874 -0.3223645,0 -0.5839637,0.26806 -0.5839637,0.59874 0,0.33005 0.2615992,0.59811 0.5839637,0.59811 z m -0.7165708,-0.59811 c 0,-0.40567 0.321057,-0.73404 0.7165708,-0.73404 0.3942064,0 0.7152635,0.32837 0.7152635,0.73404 0,0.40505 -0.3210571,0.73341 -0.7152635,0.73341 -0.3955138,0 -0.7165708,-0.32836 -0.7165708,-0.73341 z m -1.3908367,0.59081 c 0.3222107,0 0.5834253,-0.26806 0.5834253,-0.59797 0,-0.3309 -0.2612146,-0.59904 -0.5834253,-0.59904 -0.3214416,0 -0.5828869,0.26814 -0.5828869,0.59904 0,0.32991 0.2614453,0.59797 0.5828869,0.59797 z M 0.215254,295.8134 c 0,-0.40582 0.321057,-0.73426 0.715571,-0.73426 0.3956677,0 0.7161093,0.32844 0.7161093,0.73426 0,0.40567 -0.3204416,0.73319 -0.7161093,0.73319 -0.394514,0 -0.715571,-0.32752 -0.715571,-0.73319 z"
       inkscape:connector-curvature="0" />
  </g>
</svg>
