<?xml version="1.0" encoding="UTF-8" standalone="no"?>
<!-- Created with Inkscape (http://www.inkscape.org/) -->

<svg
   xmlns:dc="http://purl.org/dc/elements/1.1/"
   xmlns:cc="http://creativecommons.org/ns#"
   xmlns:rdf="http://www.w3.org/1999/02/22-rdf-syntax-ns#"
   xmlns:svg="http://www.w3.org/2000/svg"
   xmlns="http://www.w3.org/2000/svg"
   xmlns:sodipodi="http://sodipodi.sourceforge.net/DTD/sodipodi-0.dtd"
   xmlns:inkscape="http://www.inkscape.org/namespaces/inkscape"
   width="100"
   height="100"
   viewBox="0 0 26.458332 26.458334"
   version="1.1"
   id="svg8"
   inkscape:version="0.92.4 (5da689c313, 2019-01-14)"
   sodipodi:docname="Toilet.svg"
   inkscape:export-filename="G:\University\Honours\Icons\Toilet.png"
   inkscape:export-xdpi="96"
   inkscape:export-ydpi="96">
  <defs
     id="defs2" />
  <sodipodi:namedview
     id="base"
     pagecolor="#ffffff"
     bordercolor="#666666"
     borderopacity="1.0"
     inkscape:pageopacity="0.0"
     inkscape:pageshadow="2"
     inkscape:zoom="5.6"
     inkscape:cx="20.196583"
     inkscape:cy="61.416254"
     inkscape:document-units="mm"
     inkscape:current-layer="layer1"
     showgrid="false"
     units="px"
     inkscape:window-width="1920"
     inkscape:window-height="1137"
     inkscape:window-x="1912"
     inkscape:window-y="27"
     inkscape:window-maximized="1" />
  <metadata
     id="metadata5">
    <rdf:RDF>
      <cc:Work
         rdf:about="">
        <dc:format>image/svg+xml</dc:format>
        <dc:type
           rdf:resource="http://purl.org/dc/dcmitype/StillImage" />
        <dc:title></dc:title>
      </cc:Work>
    </rdf:RDF>
  </metadata>
  <g
     inkscape:label="Layer 1"
     inkscape:groupmode="layer"
     id="layer1"
     transform="translate(0,-270.54165)">
    <g
       id="g4946"
       transform="matrix(1.3985119,0,0,1.3960252,-0.05669803,270.53222)">
      <rect
         id="rect4932"
         height="19"
         width="19"
         y="0"
         x="0"
         style="fill:none" />
      <path
         id="path4934"
         d="M 4.5,3 C 3.6716,3 3,2.3284 3,1.5 3,0.6716 3.6716,0 4.5,0 5.3284,0 6,0.6716 6,1.5 6,2.3284 5.3284,3 4.5,3 Z M 14,1.5 C 14,0.6716 13.3284,0 12.5,0 11.6716,0 11,0.6716 11,1.5 11,2.3284 11.6716,3 12.5,3 13.3284,3 14,2.3284 14,1.5 Z M 8.86,6.64 v 0 L 6.38,4.15 v 0 C 6.2798,4.0492 6.142,3.9949 6,4 H 3 C 2.8697,4.0003 2.7445,4.0503 2.65,4.14 v 0 L 0.14,6.63 C -0.0861,6.807 -0.1259,7.1339 0.0511,7.36 0.2281,7.5861 0.555,7.6259 0.7811,7.4489 0.8142,7.423 0.8441,7.3931 0.87,7.36 L 3,5.2 1,11 h 2 v 3.33 c -0.0075,0.0497 -0.0075,0.1003 0,0.15 0.0555,0.2761 0.3244,0.455 0.6005,0.3995 C 3.802,14.839 3.9595,14.6815 4,14.48 v 0 V 11 h 1 v 3.5 0 c 0.0555,0.2761 0.3244,0.455 0.6005,0.3995 C 5.802,14.859 5.9595,14.7015 6,14.5 6.0075,14.4503 6.0075,14.3997 6,14.35 V 11 H 8 L 6,5.2 8.14,7.36 v 0 C 8.2367,7.4681 8.3749,7.53 8.52,7.53 8.7954,7.5088 9.0061,7.2761 9,7 9.0023,6.8663 8.9521,6.737 8.86,6.64 Z M 14.5,4 h -4 C 10.2239,4 10,4.2239 10,4.5 v 5 C 10,9.7761 10.2239,10 10.5,10 10.7761,10 11,9.7761 11,9.5 v 5 c 0,0.2761 0.2239,0.5 0.5,0.5 0.2761,0 0.5,-0.2239 0.5,-0.5 v -5 h 1 v 5 c 0,0.2761 0.2239,0.5 0.5,0.5 0.2761,0 0.5,-0.2239 0.5,-0.5 v -5 C 14,9.7761 14.2239,10 14.5,10 14.7761,10 15,9.7761 15,9.5 v -5 C 15,4.2239 14.7761,4 14.5,4 Z"
         transform="translate(2,2)"
         inkscape:connector-curvature="0"
         style="fill:#000000" />
    </g>
  </g>
</svg>
