<?xml version="1.0" encoding="UTF-8" standalone="no"?>
<!-- Created with Inkscape (http://www.inkscape.org/) -->

<svg
   xmlns:dc="http://purl.org/dc/elements/1.1/"
   xmlns:cc="http://creativecommons.org/ns#"
   xmlns:rdf="http://www.w3.org/1999/02/22-rdf-syntax-ns#"
   xmlns:svg="http://www.w3.org/2000/svg"
   xmlns="http://www.w3.org/2000/svg"
   xmlns:sodipodi="http://sodipodi.sourceforge.net/DTD/sodipodi-0.dtd"
   xmlns:inkscape="http://www.inkscape.org/namespaces/inkscape"
   width="15"
   height="15"
   viewBox="0 0 3.9687498 3.9687501"
   version="1.1"
   id="svg8"
   inkscape:version="0.92.4 (5da689c313, 2019-01-14)"
   sodipodi:docname="Toilet.svg"
   inkscape:export-filename="\\wsl$\Ubuntu\home\jagore\development\WalkTheYorkeClient\src\pages\app\map\icons\Toilet.png"
   inkscape:export-xdpi="96"
   inkscape:export-ydpi="96">
  <defs
     id="defs2" />
  <sodipodi:namedview
     id="base"
     pagecolor="#ffffff"
     bordercolor="#666666"
     borderopacity="1.0"
     inkscape:pageopacity="0.0"
     inkscape:pageshadow="2"
     inkscape:zoom="31.678384"
     inkscape:cx="9.6418185"
     inkscape:cy="6.9081342"
     inkscape:document-units="mm"
     inkscape:current-layer="g4946"
     showgrid="false"
     units="px"
     inkscape:window-width="1920"
     inkscape:window-height="1137"
     inkscape:window-x="1912"
     inkscape:window-y="-8"
     inkscape:window-maximized="1"
     inkscape:pagecheckerboard="true" />
  <metadata
     id="metadata5">
    <rdf:RDF>
      <cc:Work
         rdf:about="">
        <dc:format>image/svg+xml</dc:format>
        <dc:type
           rdf:resource="http://purl.org/dc/dcmitype/StillImage" />
        <dc:title></dc:title>
      </cc:Work>
    </rdf:RDF>
  </metadata>
  <g
     inkscape:label="Layer 1"
     inkscape:groupmode="layer"
     id="layer1"
     transform="translate(0,-293.03123)">
    <g
       id="g4946"
       transform="matrix(1.3985119,0,0,1.3960252,-0.05669803,270.53222)">
      <rect
         id="rect4932"
         height="19"
         width="19"
         y="0"
         x="0"
         style="fill:none" />
      <path
         id="path4934"
         d="m 0.9822415,16.814911 c -0.1330988,0 -0.2410046,-0.107906 -0.2410046,-0.241005 0,-0.133098 0.1079058,-0.241004 0.2410046,-0.241004 0.1330989,0 0.2410047,0.107906 0.2410047,0.241004 0,0.133099 -0.1079058,0.241005 -0.2410047,0.241005 z m 1.5263621,-0.241005 c 0,-0.133098 -0.107905,-0.241004 -0.241004,-0.241004 -0.133099,0 -0.241005,0.107906 -0.241005,0.241004 0,0.133099 0.107906,0.241005 0.241005,0.241005 0.133099,0 0.241004,-0.107906 0.241004,-0.241005 z m -0.825842,0.825843 v 0 L 1.2843007,16.999681 v 0 c -0.016099,-0.0162 -0.038239,-0.02492 -0.061055,-0.0241 H 0.7412369 c -0.020935,4.8e-5 -0.041051,0.0081 -0.056234,0.02249 v 0 l -0.403281,0.400068 c -0.036328,0.02844 -0.042722,0.08096 -0.014284,0.117289 0.028439,0.03633 0.080962,0.04272 0.1172889,0.01428 0.00532,-0.0042 0.010122,-0.009 0.014284,-0.01428 l 0.3422261,-0.347047 -0.3213395,0.931885 h 0.3213395 v 0.53503 c -0.0012,0.008 -0.0012,0.01612 0,0.0241 0.00892,0.04436 0.052121,0.0731 0.096482,0.06419 0.032375,-0.0065 0.05768,-0.03181 0.064188,-0.06419 v 0 -0.559131 h 0.1606697 v 0.562344 0 c 0.00892,0.04436 0.052121,0.0731 0.096482,0.06419 0.032375,-0.0065 0.05768,-0.03181 0.064188,-0.06419 0.00121,-0.008 0.00121,-0.01612 0,-0.0241 v -0.538243 h 0.321339 l -0.3213394,-0.931882 0.3438332,0.347047 v 0 c 0.015537,0.01737 0.037741,0.02731 0.061055,0.02731 0.044248,-0.0034 0.078102,-0.04079 0.077121,-0.08516 3.695e-4,-0.02148 -0.0077,-0.04226 -0.022494,-0.05784 z m 0.906177,-0.424168 H 1.94626 c -0.044361,0 -0.080335,0.03597 -0.080335,0.08034 v 0.803348 c 0,0.04436 0.035974,0.08034 0.080335,0.08034 0.044361,0 0.080335,-0.03597 0.080335,-0.08034 v 0.803349 c 0,0.04436 0.03597,0.08033 0.08033,0.08033 0.04436,0 0.08033,-0.03597 0.08033,-0.08033 v -0.803354 h 0.16067 v 0.803349 c 0,0.04436 0.03597,0.08033 0.08033,0.08033 0.04436,0 0.08033,-0.03597 0.08033,-0.08033 v -0.803349 c 0,0.04436 0.03597,0.08034 0.08033,0.08034 0.04436,0 0.08033,-0.03597 0.08033,-0.08034 v -0.803348 c 0,-0.04436 -0.03597,-0.08034 -0.08033,-0.08034 z"
         inkscape:connector-curvature="0"
         style="fill:#664f3d;fill-opacity:1;stroke-width:0.16066974;paint-order:markers stroke fill;stroke:#ffffff;stroke-opacity:1" />
    </g>
  </g>
</svg>
