<?xml version="1.0" encoding="UTF-8" standalone="no"?>
<!-- Created with Inkscape (http://www.inkscape.org/) -->

<svg
   xmlns:dc="http://purl.org/dc/elements/1.1/"
   xmlns:cc="http://creativecommons.org/ns#"
   xmlns:rdf="http://www.w3.org/1999/02/22-rdf-syntax-ns#"
   xmlns:svg="http://www.w3.org/2000/svg"
   xmlns="http://www.w3.org/2000/svg"
   xmlns:sodipodi="http://sodipodi.sourceforge.net/DTD/sodipodi-0.dtd"
   xmlns:inkscape="http://www.inkscape.org/namespaces/inkscape"
   width="15"
   height="15"
   viewBox="0 0 3.9687499 3.9687501"
   version="1.1"
   id="svg8"
   inkscape:version="0.92.4 (5da689c313, 2019-01-14)"
   sodipodi:docname="trail-walking2.svg">
  <defs
     id="defs2" />
  <sodipodi:namedview
     id="base"
     pagecolor="#ffffff"
     bordercolor="#666666"
     borderopacity="1.0"
     inkscape:pageopacity="0.0"
     inkscape:pageshadow="2"
     inkscape:zoom="15.839192"
     inkscape:cx="8.3247301"
     inkscape:cy="12.807656"
     inkscape:document-units="mm"
     inkscape:current-layer="layer1"
     showgrid="false"
     units="px"
     inkscape:window-width="1920"
     inkscape:window-height="1137"
     inkscape:window-x="1912"
     inkscape:window-y="-8"
     inkscape:window-maximized="1" />
  <metadata
     id="metadata5">
    <rdf:RDF>
      <cc:Work
         rdf:about="">
        <dc:format>image/svg+xml</dc:format>
        <dc:type
           rdf:resource="http://purl.org/dc/dcmitype/StillImage" />
        <dc:title></dc:title>
      </cc:Work>
    </rdf:RDF>
  </metadata>
  <g
     inkscape:label="Layer 1"
     inkscape:groupmode="layer"
     id="layer1"
     transform="translate(0,-293.03123)">
    <path
       inkscape:connector-curvature="0"
       id="path8"
       style="overflow:inherit;fill:#231f20;stroke-width:0.07922548"
       d="m 0.90195398,296.59576 c -0.00261,0.0135 -0.00341,0.027 -0.00341,0.0406 0,0.11171 0.092218,0.20139 0.20693692,0.20139 0.093961,0 0.1730285,-0.0609 0.1982222,-0.14379 l 0.3556432,-1.43296 0.339085,1.4244 c 0.021787,0.088 0.1035477,0.15235 0.2000444,0.15235 0.1147977,0 0.2069369,-0.0897 0.2069369,-0.20139 0,-0.0153 -0.00174,-0.0296 -0.00444,-0.0441 l -0.4651329,-1.89247 0.039137,-0.16677 0.030502,0.1312 c 0.027808,0.0855 0.1077466,0.094 0.1077466,0.094 l 0.4791558,0.11852 c 0.00959,0.002 0.019093,0.003 0.028759,0.003 0.078196,0 0.1417344,-0.0609 0.1417344,-0.13706 0,-0.0651 -0.046109,-0.12019 -0.1087766,-0.13453 l -0.4146624,-0.10196 -0.1139262,-0.45024 c -0.053953,-0.25138 -0.3008192,-0.24544 -0.3008192,-0.24544 -0.2399739,-0.006 -0.3000268,0.23942 -0.3000268,0.23942 z m 1.64305722,0.17097 c 0,0.002 -8.705e-4,0.003 -8.705e-4,0.004 0,0.0364 0.030423,0.0661 0.067738,0.0661 0.033908,0 0.062588,-0.0254 0.067025,-0.0576 l 0.4938906,-2.60755 c 0,-0.002 0,-0.003 0,-0.005 0,-0.0356 -0.029551,-0.0652 -0.066946,-0.0652 -0.033908,0 -0.060053,0.0254 -0.066945,0.0576 z m -1.1316567,-2.9529 c 0.01125,-0.044 -0.01743,-0.088 -0.061796,-0.099 l -0.2452029,-0.0576 c -0.046109,-0.0101 -0.091268,0.0162 -0.1018047,0.06 l -0.20606552,0.83028 c -0.011329,0.044 0.016479,0.088 0.061717,0.099 l 0.24607442,0.0576 c 0.044366,0.011 0.090476,-0.0161 0.100854,-0.0601 z m 0.4973775,-0.0474 c 0.1625707,0 0.2938473,-0.12866 0.2938473,-0.28696 0,-0.15821 -0.1312766,-0.286 -0.2938473,-0.286 -0.1626499,0 -0.2948772,0.12779 -0.2948772,0.28608 0,0.1583 0.1322273,0.28688 0.2948772,0.28688 z" />
  </g>
</svg>
