<?xml version="1.0" encoding="UTF-8" standalone="no"?>
<!-- Created with Inkscape (http://www.inkscape.org/) -->

<svg
   xmlns:dc="http://purl.org/dc/elements/1.1/"
   xmlns:cc="http://creativecommons.org/ns#"
   xmlns:rdf="http://www.w3.org/1999/02/22-rdf-syntax-ns#"
   xmlns:svg="http://www.w3.org/2000/svg"
   xmlns="http://www.w3.org/2000/svg"
   xmlns:sodipodi="http://sodipodi.sourceforge.net/DTD/sodipodi-0.dtd"
   xmlns:inkscape="http://www.inkscape.org/namespaces/inkscape"
   width="100"
   height="100"
   viewBox="0 0 26.458333 26.458334"
   version="1.1"
   id="svg8"
   inkscape:version="0.92.4 (5da689c313, 2019-01-14)"
   sodipodi:docname="user_point_teardrop.svg"
   inkscape:export-filename="\\wsl$\Ubuntu\home\jagore\development\WalkTheYorkeClient\src\pages\app\map\icons\user_point_teardrop.png"
   inkscape:export-xdpi="96"
   inkscape:export-ydpi="96">
  <defs
     id="defs2">
    <filter
       inkscape:collect="always"
       style="color-interpolation-filters:sRGB"
       id="filter5832"
       x="-0.046641509"
       width="1.093283"
       y="-0.15778724"
       height="1.3155745">
      <feGaussianBlur
         inkscape:collect="always"
         stdDeviation="0.78034285"
         id="feGaussianBlur5834" />
    </filter>
  </defs>
  <sodipodi:namedview
     id="base"
     pagecolor="#ffffff"
     bordercolor="#666666"
     borderopacity="1.0"
     inkscape:pageopacity="0.0"
     inkscape:pageshadow="2"
     inkscape:zoom="2.5600001"
     inkscape:cx="-75.780529"
     inkscape:cy="34.087719"
     inkscape:document-units="mm"
     inkscape:current-layer="g4932"
     showgrid="false"
     units="px"
     showguides="true"
     inkscape:guide-bbox="true"
     inkscape:window-width="1920"
     inkscape:window-height="1137"
     inkscape:window-x="1912"
     inkscape:window-y="-8"
     inkscape:window-maximized="1"
     inkscape:pagecheckerboard="true">
    <sodipodi:guide
       position="-113.18864,120.53856"
       orientation="1,0"
       id="guide10"
       inkscape:locked="false" />
  </sodipodi:namedview>
  <metadata
     id="metadata5">
    <rdf:RDF>
      <cc:Work
         rdf:about="">
        <dc:format>image/svg+xml</dc:format>
        <dc:type
           rdf:resource="http://purl.org/dc/dcmitype/StillImage" />
        <dc:title />
      </cc:Work>
    </rdf:RDF>
  </metadata>
  <g
     inkscape:label="Layer 1"
     inkscape:groupmode="layer"
     id="layer1"
     transform="translate(0,-270.54165)">
    <g
       id="g4950"
       transform="matrix(0.26458333,0,0,0.26458333,0.50058058,270.36131)">
      <g
         id="g4932"
         style="stroke-width:0.37795275;stroke-miterlimit:4;stroke-dasharray:none;paint-order:stroke markers fill"
         transform="matrix(1.0690119,0,0,1.0690119,-3.8214316,-6.9386399)">
        <ellipse
           style="fill:#000000;fill-opacity:0.14285715;stroke:none;stroke-width:0.64518309;stroke-miterlimit:4;stroke-dasharray:none;stroke-opacity:1;paint-order:stroke markers fill;filter:url(#filter5832)"
           id="path5810"
           cx="49.752094"
           cy="93.96904"
           rx="20.076782"
           ry="5.9346461"
           transform="matrix(0.91486978,0,0,0.85613997,3.0603895,14.455331)" />
        <path
           id="path4930"
           d="m 48.577078,12.708986 c -14.953069,0 -27.07617,10.286631 -27.07617,25.976432 0,21.890452 27.07617,30.698604 27.07617,53.099804 0,-22.4012 27.07617,-31.675297 27.07617,-53.099804 0,-14.345729 -12.123101,-25.976432 -27.07617,-25.976432 z"
           inkscape:connector-curvature="0"
           sodipodi:nodetypes="sscss"
           style="opacity:1;fill:#2100eb;fill-opacity:1;stroke:#ffffff;stroke-width:4.89671419;stroke-linecap:round;stroke-linejoin:round;stroke-miterlimit:4;stroke-dasharray:none;stroke-opacity:1;paint-order:stroke markers fill"
           inkscape:export-xdpi="34.770611"
           inkscape:export-ydpi="34.770611" />
        <g
           id="g849"
           transform="matrix(0.41560338,0,0,0.41560338,29.599516,17.612291)"
           style="fill:#ffffff;fill-opacity:1;stroke:#ffffff;stroke-width:6.8957119;stroke-miterlimit:4;stroke-dasharray:none;stroke-opacity:1">
          <g
             id="g830"
             style="fill:#ffffff;fill-opacity:1;stroke:#ffffff;stroke-width:6.8957119;stroke-miterlimit:4;stroke-dasharray:none;stroke-opacity:1">
            <path
               id="path826"
               d="m 66.007835,26.483113 c 0,-11.028 -8.972,-20 -20,-20 -11.028,0 -20,8.972 -20,20 0,11.028 8.972,20 20,20 11.028,0 20,-8.972 20,-20 z m -35,0 c 0,-8.271 6.729,-15 15,-15 8.271,0 15,6.729 15,15 0,8.271 -6.729,15 -15,15 -8.271,0 -15,-6.729 -15,-15 z"
               inkscape:connector-curvature="0"
               style="fill:#ffffff;fill-opacity:1;stroke:#ffffff;stroke-width:6.8957119;stroke-miterlimit:4;stroke-dasharray:none;stroke-opacity:1" />
            <path
               id="path828"
               d="m 6.0078349,80 v 7.5 c 0,1.381 1.119,2.5 2.5,2.5 H 83.507835 c 1.381,0 2.5,-1.119 2.5,-2.5 V 80 c 0,-14.019 -17.57,-25 -40,-25 -22.43,0 -40.0000001,10.981 -40.0000001,25 z M 46.007835,60 c 18.972,0 35,9.159 35,20 v 5 h -70 v -5 c 0,-10.841 16.028,-20 35,-20 z"
               inkscape:connector-curvature="0"
               style="fill:#ffffff;fill-opacity:1;stroke:#ffffff;stroke-width:6.8957119;stroke-miterlimit:4;stroke-dasharray:none;stroke-opacity:1" />
          </g>
        </g>
      </g>
    </g>
  </g>
</svg>
